<?xml version="1.0" encoding="UTF-8" standalone="no"?>
<!-- Created with Inkscape (http://www.inkscape.org/) -->

<svg
   width="1024"
   height="576"
   viewBox="0 0 256 144"
   version="1.1"
   id="svg5"
   inkscape:version="1.2.2 (732a01da63, 2022-12-09)"
   sodipodi:docname="シンセ.svg"
   xmlns:inkscape="http://www.inkscape.org/namespaces/inkscape"
   xmlns:sodipodi="http://sodipodi.sourceforge.net/DTD/sodipodi-0.dtd"
   xmlns="http://www.w3.org/2000/svg"
   xmlns:svg="http://www.w3.org/2000/svg">
  <sodipodi:namedview
     id="namedview7"
     pagecolor="#ffffff"
     bordercolor="#cccccc"
     borderopacity="1"
     inkscape:showpageshadow="0"
     inkscape:pageopacity="1"
     inkscape:pagecheckerboard="0"
     inkscape:deskcolor="#d1d1d1"
     inkscape:document-units="px"
     showgrid="true"
     inkscape:zoom="2.0888418"
     inkscape:cx="330.80533"
     inkscape:cy="109.1514"
     inkscape:window-width="1920"
     inkscape:window-height="1009"
     inkscape:window-x="-8"
     inkscape:window-y="-8"
     inkscape:window-maximized="1"
     inkscape:current-layer="layer1"
     showguides="true">
    <inkscape:grid
       type="xygrid"
       id="grid9"
       dotted="true" />
  </sodipodi:namedview>
  <defs
     id="defs2">
    <rect
       x="99.576713"
       y="3.3511394"
       width="41.171141"
       height="15.319494"
       id="rect1369" />
    <inkscape:path-effect
       effect="ruler"
       id="path-effect2776"
       is_visible="true"
       lpeversion="1"
       unit="px"
       mark_distance="4.7"
       mark_length="1.5"
       minor_mark_length="1"
       major_mark_steps="5"
       shift="0"
       offset="0"
       mark_dir="left"
       border_marks="start" />
    <inkscape:path-effect
       effect="ruler"
       id="path-effect2772"
       is_visible="true"
       lpeversion="1"
       unit="px"
       mark_distance="4.7"
       mark_length="1.5"
       minor_mark_length="1"
       major_mark_steps="5"
       shift="0"
       offset="0"
       mark_dir="left"
       border_marks="start" />
    <inkscape:path-effect
       effect="ruler"
       id="path-effect1110"
       is_visible="true"
       lpeversion="1"
       unit="px"
       mark_distance="3.1"
       mark_length="1.5"
       minor_mark_length="1.5"
       major_mark_steps="5"
       shift="0"
       offset="0"
       mark_dir="left"
       border_marks="both" />
    <inkscape:path-effect
       effect="ruler"
       id="path-effect1084"
       is_visible="true"
       lpeversion="1"
       unit="px"
       mark_distance="3.8"
       mark_length="1.5"
       minor_mark_length="1"
       major_mark_steps="5"
       shift="0"
       offset="0"
       mark_dir="left"
       border_marks="both" />
    <inkscape:path-effect
       effect="ruler"
       id="path-effect1082"
       is_visible="true"
       lpeversion="1"
       unit="px"
       mark_distance="3.8"
       mark_length="1.5"
       minor_mark_length="1"
       major_mark_steps="5"
       shift="0"
       offset="0"
       mark_dir="left"
       border_marks="both" />
    <inkscape:path-effect
       effect="ruler"
       id="path-effect1080"
       is_visible="true"
       lpeversion="1"
       unit="px"
       mark_distance="3.8"
       mark_length="1.5"
       minor_mark_length="1"
       major_mark_steps="5"
       shift="0"
       offset="0"
       mark_dir="left"
       border_marks="both" />
    <inkscape:path-effect
       effect="ruler"
       id="path-effect1078"
       is_visible="true"
       lpeversion="1"
       unit="px"
       mark_distance="3.8"
       mark_length="1.5"
       minor_mark_length="1"
       major_mark_steps="5"
       shift="0"
       offset="0"
       mark_dir="left"
       border_marks="both" />
    <inkscape:path-effect
       effect="ruler"
       id="path-effect1076"
       is_visible="true"
       lpeversion="1"
       unit="px"
       mark_distance="3.8"
       mark_length="1.5"
       minor_mark_length="1"
       major_mark_steps="5"
       shift="0"
       offset="0"
       mark_dir="left"
       border_marks="both" />
    <inkscape:path-effect
       effect="ruler"
       id="path-effect1074"
       is_visible="true"
       lpeversion="1"
       unit="px"
       mark_distance="3"
       mark_length="1.5"
       minor_mark_length="1"
       major_mark_steps="13"
       shift="0"
       offset="0"
       mark_dir="left"
       border_marks="start" />
    <inkscape:path-effect
       effect="ruler"
       id="path-effect1070"
       is_visible="true"
       lpeversion="1"
       unit="px"
       mark_distance="7.6"
       mark_length="1.5"
       minor_mark_length="1"
       major_mark_steps="5"
       shift="0"
       offset="0"
       mark_dir="left"
       border_marks="both" />
    <inkscape:path-effect
       effect="ruler"
       id="path-effect1068"
       is_visible="true"
       lpeversion="1"
       unit="px"
       mark_distance="7.4"
       mark_length="1.5"
       minor_mark_length="1.5"
       major_mark_steps="5"
       shift="0"
       offset="0"
       mark_dir="left"
       border_marks="both" />
    <inkscape:path-effect
       effect="ruler"
       id="path-effect64691"
       is_visible="true"
       lpeversion="1"
       unit="mm"
       mark_distance="0"
       mark_length="1"
       minor_mark_length="0.5"
       major_mark_steps="10"
       shift="22"
       offset="0"
       mark_dir="left"
       border_marks="both" />
    <inkscape:path-effect
       effect="ruler"
       id="path-effect1110-0"
       is_visible="true"
       lpeversion="1"
       unit="px"
       mark_distance="3.1"
       mark_length="1.5"
       minor_mark_length="1.5"
       major_mark_steps="5"
       shift="0"
       offset="0"
       mark_dir="left"
       border_marks="both" />
    <inkscape:path-effect
       effect="ruler"
       id="path-effect1110-0-6"
       is_visible="true"
       lpeversion="1"
       unit="px"
       mark_distance="3.1"
       mark_length="1.5"
       minor_mark_length="1.5"
       major_mark_steps="5"
       shift="0"
       offset="0"
       mark_dir="left"
       border_marks="both" />
    <inkscape:path-effect
       effect="ruler"
       id="path-effect1110-2"
       is_visible="true"
       lpeversion="1"
       unit="px"
       mark_distance="3.1"
       mark_length="1.5"
       minor_mark_length="1.5"
       major_mark_steps="5"
       shift="0"
       offset="0"
       mark_dir="left"
       border_marks="both" />
    <inkscape:path-effect
       effect="ruler"
       id="path-effect1110-2-4"
       is_visible="true"
       lpeversion="1"
       unit="px"
       mark_distance="3.1"
       mark_length="1.5"
       minor_mark_length="1.5"
       major_mark_steps="5"
       shift="0"
       offset="0"
       mark_dir="left"
       border_marks="both" />
    <inkscape:path-effect
       effect="ruler"
       id="path-effect1110-2-4-8"
       is_visible="true"
       lpeversion="1"
       unit="px"
       mark_distance="4.9"
       mark_length="1.5"
       minor_mark_length="1.5"
       major_mark_steps="5"
       shift="0"
       offset="0"
       mark_dir="left"
       border_marks="both" />
    <inkscape:path-effect
       effect="ruler"
       id="path-effect1110-2-4-8-6"
       is_visible="true"
       lpeversion="1"
       unit="px"
       mark_distance="6.1"
       mark_length="1.5"
       minor_mark_length="1.5"
       major_mark_steps="5"
       shift="0"
       offset="0"
       mark_dir="left"
       border_marks="both" />
    <inkscape:path-effect
       effect="ruler"
       id="path-effect1110-2-4-8-6-7"
       is_visible="true"
       lpeversion="1"
       unit="px"
       mark_distance="11"
       mark_length="1.5"
       minor_mark_length="1.5"
       major_mark_steps="5"
       shift="0"
       offset="0"
       mark_dir="left"
       border_marks="both" />
    <inkscape:path-effect
       effect="ruler"
       id="path-effect1110-2-4-8-6-7-4"
       is_visible="true"
       lpeversion="1"
       unit="px"
       mark_distance="11"
       mark_length="1.5"
       minor_mark_length="1.5"
       major_mark_steps="5"
       shift="0"
       offset="0"
       mark_dir="left"
       border_marks="both" />
    <inkscape:path-effect
       effect="ruler"
       id="path-effect1078-0"
       is_visible="true"
       lpeversion="1"
       unit="px"
       mark_distance="3.8"
       mark_length="1.5"
       minor_mark_length="1"
       major_mark_steps="5"
       shift="0"
       offset="0"
       mark_dir="left"
       border_marks="both" />
    <inkscape:path-effect
       effect="ruler"
       id="path-effect1110-2-4-8-6-1"
       is_visible="true"
       lpeversion="1"
       unit="px"
       mark_distance="6.1"
       mark_length="1.5"
       minor_mark_length="1.5"
       major_mark_steps="5"
       shift="0"
       offset="0"
       mark_dir="left"
       border_marks="both" />
    <inkscape:path-effect
       effect="ruler"
       id="path-effect1070-7"
       is_visible="true"
       lpeversion="1"
       unit="px"
       mark_distance="7.6"
       mark_length="1.5"
       minor_mark_length="1"
       major_mark_steps="5"
       shift="0"
       offset="0"
       mark_dir="left"
       border_marks="both" />
    <inkscape:path-effect
       effect="ruler"
       id="path-effect1078-2"
       is_visible="true"
       lpeversion="1"
       unit="px"
       mark_distance="3.8"
       mark_length="1.5"
       minor_mark_length="1"
       major_mark_steps="5"
       shift="0"
       offset="0"
       mark_dir="left"
       border_marks="both" />
    <inkscape:path-effect
       effect="ruler"
       id="path-effect1078-2-1"
       is_visible="true"
       lpeversion="1"
       unit="px"
       mark_distance="3.8"
       mark_length="1.5"
       minor_mark_length="1"
       major_mark_steps="5"
       shift="0"
       offset="0"
       mark_dir="left"
       border_marks="both" />
    <inkscape:path-effect
       effect="ruler"
       id="path-effect1078-2-7"
       is_visible="true"
       lpeversion="1"
       unit="px"
       mark_distance="3.8"
       mark_length="1.5"
       minor_mark_length="1"
       major_mark_steps="5"
       shift="0"
       offset="0"
       mark_dir="left"
       border_marks="both" />
  </defs>
  <g
     inkscape:label="Layer 1"
     inkscape:groupmode="layer"
     id="layer1">
    <rect
       style="fill:#ffffff;fill-opacity:0;stroke:#000000;stroke-width:0.248305;stroke-dasharray:none;image-rendering:auto"
       id="rect547-7-5-8-8-1-0-7-5"
       width="45.477985"
       height="22.300802"
       x="79.962097"
       y="75.575066"
       ry="1.4137604" />
    <rect
       style="fill:#ffffff;stroke:#000000;stroke-width:0.238653;stroke-dasharray:none;image-rendering:auto;fill-opacity:0"
       id="rect547"
       width="23.206678"
       height="84.764313"
       x="29.501562"
       y="2.507266"
       ry="2.5170453" />
    <circle
       style="fill:#2b0000;fill-opacity:0;stroke:#000000;stroke-width:0.24625;stroke-dasharray:none;stroke-opacity:1;paint-order:markers fill stroke"
       id="path113"
       cy="15.805416"
       cx="41.1049"
       r="7" />
    <circle
       style="fill:#2b0000;fill-opacity:0;stroke:#000000;stroke-width:0.24625;stroke-dasharray:none;stroke-opacity:1;paint-order:markers fill stroke"
       id="path113-6"
       cy="35.766582"
       cx="41.1049"
       r="7" />
    <path
       style="fill:#2b0000;fill-opacity:0;stroke:#000000;stroke-width:0.24625;stroke-dasharray:none;stroke-opacity:1;paint-order:markers fill stroke"
       id="path113-6-4"
       sodipodi:type="arc"
       sodipodi:cx="41.1049"
       sodipodi:cy="55.727753"
       sodipodi:rx="7"
       sodipodi:ry="7"
       sodipodi:start="2.0071286"
       sodipodi:end="1.134464"
       sodipodi:arc-type="arc"
       d="m 38.146573,62.071907 c -2.974692,-1.387121 -4.586145,-4.654824 -3.875745,-7.859231 0.7104,-3.204408 3.551864,-5.484923 6.834072,-5.484923 3.282209,0 6.123672,2.280515 6.834072,5.484922 0.7104,3.204408 -0.901052,6.472111 -3.875744,7.859232 m -5.916655,0 -0.633928,1.359462 m -2.218064,-3.799747 -0.830045,0.557695 m -0.351319,-4.120451 -0.998812,0.04873 m 1.827749,-3.709565 -0.880393,-0.474246 m 3.481289,-2.232078 -0.508836,-0.860863 m 4.133863,-0.112806 0.01354,-1.499939 m 3.593323,2.53888 0.524292,-0.851539 m 2.027333,3.604367 0.888809,-0.458278 m -0.126084,4.133479 0.99777,0.06675 m -2.243249,3.474101 0.819844,0.572587 m -3.600425,1.76346 0.633928,1.359462"
       sodipodi:open="true"
       inkscape:path-effect="#path-effect1076" />
    <circle
       style="fill:#2b0000;fill-opacity:0;stroke:#000000;stroke-width:0.24625;stroke-dasharray:none;stroke-opacity:1;paint-order:markers fill stroke"
       id="path113-6-4-3"
       cy="75.688919"
       cx="41.1049"
       r="7" />
    <rect
       style="fill:#ffffff;fill-opacity:0;stroke:#000000;stroke-width:0.241769;stroke-dasharray:none;image-rendering:auto"
       id="rect547-3"
       width="23.75823"
       height="84.972763"
       x="3.3993278"
       y="2.4997821"
       ry="2.5232353" />
    <path
       style="fill:#2b0000;fill-opacity:0;stroke:#000000;stroke-width:0.246555;stroke-dasharray:none;stroke-opacity:1;paint-order:markers fill stroke"
       id="path113-8"
       sodipodi:type="arc"
       sodipodi:cx="15.001106"
       sodipodi:cy="15.805416"
       sodipodi:rx="6.9999108"
       sodipodi:ry="7.0174475"
       sodipodi:start="2.0071286"
       sodipodi:end="1.134464"
       sodipodi:arc-type="arc"
       d="M 12.042816,22.165384 C 9.0681628,20.774805 7.4567304,17.498957 8.1671212,14.286563 8.8775121,11.074168 11.718939,8.7879686 15.001106,8.7879686 c 3.282167,0 6.123594,2.2861994 6.833985,5.4985934 0.710391,3.212395 -0.901041,6.488243 -3.875695,7.878821 m -5.91658,1e-6 -0.635231,1.358853 M 8.0101231,16.159722 7.0113922,16.210086 M 11.416914,9.7776733 10.903934,8.9192725 m 7.743545,0.8959991 0.521867,-0.8530268 m 2.818709,7.2700292 0.998158,0.06068 m -5.026817,5.872433 0.635232,1.358853"
       sodipodi:open="true"
       inkscape:path-effect="#path-effect1070" />
    <path
       style="fill:#2b0000;fill-opacity:0;stroke:#000000;stroke-width:0.246555;stroke-dasharray:none;stroke-opacity:1;paint-order:markers fill stroke"
       id="path113-8-6"
       sodipodi:type="arc"
       sodipodi:cx="15.002055"
       sodipodi:cy="35.492283"
       sodipodi:rx="6.9999108"
       sodipodi:ry="7.0174475"
       sodipodi:start="2.0071286"
       sodipodi:end="1.134464"
       sodipodi:arc-type="arc"
       d="M 12.043765,41.85225 C 9.0691118,40.461672 7.4576793,37.185824 8.1680701,33.973429 8.878461,30.761035 11.719888,28.474835 15.002055,28.474835 c 3.282167,0 6.123594,2.2862 6.833985,5.498594 0.710391,3.212394 -0.901041,6.488242 -3.875695,7.878821 m -5.91658,0 -0.635231,1.358853 M 8.011072,35.846589 7.0123411,35.896952 M 11.417862,29.46454 10.904883,28.606139 m 7.743545,0.895999 0.521867,-0.853026 m 2.818709,7.270029 0.998157,0.06068 m -5.026816,5.872433 0.635231,1.358853"
       sodipodi:open="true"
       inkscape:path-effect="#path-effect1070-7" />
    <g
       aria-label="Decay half-life time"
       transform="matrix(1.0245444,0,0,0.97846389,-26.10327,-0.01514218)"
       id="text335-5-3-7"
       style="font-size:2px;line-height:1.25;stroke-width:0.256139" />
    <path
       style="fill:#2b0000;fill-opacity:0;stroke:#000000;stroke-width:0.246555;stroke-dasharray:none;stroke-opacity:1;paint-order:markers fill stroke"
       id="path113-6-4-4"
       sodipodi:type="arc"
       sodipodi:cx="15.001106"
       sodipodi:cy="55.851513"
       sodipodi:rx="6.9999108"
       sodipodi:ry="7.0174475"
       sodipodi:start="2.0071286"
       sodipodi:end="1.134464"
       sodipodi:arc-type="arc"
       d="M 12.042816,62.21148 C 9.0681628,60.820902 7.4567304,57.545054 8.1671212,54.33266 c 0.7103909,-3.212395 3.5518178,-5.498595 6.8339848,-5.498595 3.282167,0 6.123594,2.2862 6.833985,5.498594 0.710391,3.212394 -0.901041,6.488242 -3.875695,7.878821 m -5.91658,0 -0.635231,1.358853 M 9.6757271,60.405921 8.9141479,61.053993 M 8.2709705,57.780919 7.3093288,58.055227 M 8.0787489,54.809814 7.0897737,54.661733 M 9.1331135,52.025486 8.2941955,51.481228 M 11.246723,49.928806 10.70942,49.085417 m 3.331074,-0.184959 -0.137569,-0.990492 m 3.105777,1.218905 0.287462,-0.957791 m 2.31639,2.400998 0.659719,-0.751512 m 1.109763,3.145806 0.911958,-0.410283 m -0.293029,3.322544 0.999992,0.0039 m -1.641365,2.903544 0.908763,0.417312 m -2.696702,1.963229 0.653881,0.756598"
       inkscape:path-effect="#path-effect1074"
       sodipodi:open="true" />
    <g
       aria-label="Release-Slope time"
       transform="matrix(1.0245444,0,0,0.97846389,-26.10327,-0.01514218)"
       id="text335-5-3-0-2-9"
       style="font-size:2px;line-height:1.25;stroke-width:0.256139" />
    <rect
       style="fill:#ffffff;stroke:#000000;stroke-width:0.24111;stroke-dasharray:none;image-rendering:auto;fill-opacity:0"
       id="rect547-7"
       width="24.794592"
       height="84.755264"
       x="53.716221"
       y="2.5117869"
       ry="2.5167775" />
    <rect
       style="fill:#ffffff;stroke:#000000;stroke-width:0.249063;stroke-dasharray:none;image-rendering:auto;fill-opacity:0"
       id="rect547-7-5"
       width="63.257004"
       height="71.9879"
       x="79.99675"
       y="2.5202482"
       ry="2.1376545" />
    <rect
       style="fill:#ffffff;stroke:#000000;stroke-width:0.248906;stroke-dasharray:none;image-rendering:auto;fill-opacity:0"
       id="rect547-7-5-8"
       width="60.678017"
       height="21.701771"
       x="81.28112"
       y="6.2772202"
       ry="2.4959934" />
    <path
       style="fill:#2b0000;fill-opacity:0;stroke:#000000;stroke-width:0.24625;stroke-dasharray:none;stroke-opacity:1;paint-order:markers fill stroke"
       id="path113-64"
       sodipodi:type="arc"
       sodipodi:cx="66.113518"
       sodipodi:cy="15.805416"
       sodipodi:rx="7"
       sodipodi:ry="7"
       sodipodi:start="2.0071286"
       sodipodi:end="1.134464"
       sodipodi:arc-type="arc"
       d="m 63.15519,22.149571 c -2.974691,-1.387122 -4.586144,-4.654825 -3.875744,-7.859232 0.7104,-3.204407 3.551863,-5.4849229 6.834072,-5.4849229 3.282208,0 6.123672,2.2805149 6.834072,5.4849229 0.7104,3.204407 -0.901053,6.47211 -3.875744,7.859232 m -5.916656,0 -0.633927,1.359461 m -2.218064,-3.799747 -0.830046,0.557696 m -0.351319,-4.120452 -0.998812,0.04873 m 1.827749,-3.709566 -0.880392,-0.474246 M 62.551668,9.7793707 62.042832,8.918507 m 4.133862,-0.1128058 0.01354,-1.4999389 m 3.593324,2.5388803 0.524291,-0.851539 m 2.027333,3.6043674 0.888809,-0.458278 m -0.126083,4.133478 0.997769,0.06675 m -2.243248,3.474101 0.819844,0.572587 m -3.600425,1.763461 0.633927,1.359461"
       sodipodi:open="true"
       inkscape:path-effect="#path-effect1078" />
    <path
       style="fill:#2b0000;fill-opacity:0;stroke:#000000;stroke-width:0.24625;stroke-dasharray:none;stroke-opacity:1;paint-order:markers fill stroke"
       id="path113-64-5"
       sodipodi:type="arc"
       sodipodi:cx="221.5775"
       sodipodi:cy="59.035278"
       sodipodi:rx="7"
       sodipodi:ry="7"
       sodipodi:start="2.0071286"
       sodipodi:end="1.134464"
       sodipodi:arc-type="arc"
       d="m 218.61917,65.379433 c -2.97469,-1.387121 -4.58614,-4.654824 -3.87574,-7.859232 0.7104,-3.204407 3.55186,-5.484923 6.83407,-5.484923 3.28221,0 6.12367,2.280516 6.83407,5.484923 0.7104,3.204407 -0.90105,6.47211 -3.87574,7.859232 m -5.91666,0 -0.63393,1.359462 m -2.21806,-3.799748 -0.83005,0.557696 m -0.35131,-4.120451 -0.99882,0.04873 m 1.82775,-3.709566 -0.88039,-0.474246 m 3.48129,-2.232077 -0.50884,-0.860864 m 4.13387,-0.112806 0.0135,-1.499938 m 3.59333,2.53888 0.52429,-0.851539 m 2.02733,3.604367 0.88881,-0.458278 m -0.12608,4.133479 0.99777,0.06675 m -2.24325,3.474102 0.81984,0.572586 m -3.60042,1.763461 0.63392,1.359461"
       sodipodi:open="true"
       inkscape:path-effect="#path-effect1078-0" />
    <path
       style="fill:#2b0000;fill-opacity:0;stroke:#000000;stroke-width:0.24625;stroke-dasharray:none;stroke-opacity:1;paint-order:markers fill stroke"
       id="path113-6-5"
       sodipodi:type="arc"
       sodipodi:cx="66.113518"
       sodipodi:cy="35.803528"
       sodipodi:rx="7"
       sodipodi:ry="7"
       sodipodi:start="2.0071286"
       sodipodi:end="1.134464"
       sodipodi:arc-type="arc"
       d="m 63.15519,42.147682 c -2.974691,-1.387121 -4.586144,-4.654824 -3.875744,-7.859231 0.7104,-3.204408 3.551863,-5.484923 6.834072,-5.484923 3.282208,0 6.123672,2.280515 6.834072,5.484922 0.7104,3.204408 -0.901053,6.472111 -3.875744,7.859232 m -5.916656,0 -0.633927,1.359462 m -2.218064,-3.799747 -0.830046,0.557695 m -0.351319,-4.120451 -0.998812,0.04873 m 1.827749,-3.709566 -0.880392,-0.474246 m 3.481289,-2.232078 -0.508836,-0.860863 m 4.133862,-0.112806 0.01354,-1.499939 m 3.593324,2.53888 0.524291,-0.851539 m 2.027333,3.604367 0.888809,-0.458277 m -0.126083,4.133478 0.997769,0.06675 m -2.243248,3.474101 0.819844,0.572587 m -3.600425,1.76346 0.633927,1.359462"
       sodipodi:open="true"
       inkscape:path-effect="#path-effect1080" />
    <circle
       style="fill:#2b0000;stroke-width:0.24625;stroke-dasharray:none;paint-order:markers fill stroke;fill-opacity:0;stroke:#000000;stroke-opacity:1"
       id="path113-64-6"
       r="7"
       cy="17.069624"
       cx="91.428108" />
    <path
       style="fill:#2b0000;fill-opacity:0;stroke:#000000;stroke-width:0.24625;stroke-dasharray:none;stroke-opacity:1;paint-order:markers fill stroke"
       id="path113-64-6-73"
       sodipodi:type="arc"
       sodipodi:cx="91.418304"
       sodipodi:cy="17.069624"
       sodipodi:rx="7"
       sodipodi:ry="7"
       sodipodi:start="5.4105207"
       sodipodi:end="0.87266463"
       sodipodi:arc-type="arc"
       sodipodi:open="true"
       d="m 95.917818,11.707313 c 1.585061,1.330024 2.500486,3.293161 2.500486,5.362311 0,2.06915 -0.915425,4.032287 -2.500486,5.362311 m 0,-10.724622 0.964181,-1.149067 m 0.899627,3.594507 1.363569,-0.625043 m -0.727487,3.633259 1.499873,0.01957 m -2.214242,2.971018 1.346794,0.660415 m -3.132315,1.619959 0.964181,1.149067"
       inkscape:path-effect="#path-effect1110" />
    <path
       style="fill:#2b0000;fill-opacity:0;stroke:#000000;stroke-width:0.24625;stroke-dasharray:none;stroke-opacity:1;paint-order:markers fill stroke"
       id="path113-64-6-73-6"
       sodipodi:type="arc"
       sodipodi:cx="201.77831"
       sodipodi:cy="35.008636"
       sodipodi:rx="7"
       sodipodi:ry="7"
       sodipodi:start="5.4105207"
       sodipodi:end="0.87266463"
       sodipodi:arc-type="arc"
       sodipodi:open="true"
       d="m 206.27782,29.646325 c 1.58506,1.330025 2.50049,3.293161 2.50049,5.362311 0,2.069151 -0.91543,4.032287 -2.50049,5.362312 m 0,-10.724623 0.96418,-1.149066 m 0.89963,3.594507 1.36357,-0.625044 m -0.72749,3.63326 1.49987,0.01957 m -2.21424,2.971017 1.34679,0.660415 m -3.13231,1.61996 0.96418,1.149066"
       inkscape:path-effect="#path-effect1110-2" />
    <path
       style="fill:#2b0000;fill-opacity:0;stroke:#000000;stroke-width:0.24625;stroke-dasharray:none;stroke-opacity:1;paint-order:markers fill stroke"
       id="path113-64-6-73-6-8"
       sodipodi:type="arc"
       sodipodi:cx="201.77005"
       sodipodi:cy="79.771362"
       sodipodi:rx="7"
       sodipodi:ry="7"
       sodipodi:start="5.4105207"
       sodipodi:end="0.87266463"
       sodipodi:arc-type="arc"
       d="m 206.26956,74.409051 c 1.58506,1.330024 2.50049,3.293161 2.50049,5.362311 0,2.06915 -0.91543,4.032287 -2.50049,5.362311 m 0,-10.724622 0.96418,-1.149066 m 0.89963,3.594507 1.36357,-0.625044 m -0.72749,3.633259 1.49988,0.01957 m -2.21424,2.971018 1.34679,0.660415 m -3.13232,1.619959 0.96418,1.149067"
       sodipodi:open="true"
       inkscape:path-effect="#path-effect1110-2-4" />
    <path
       style="fill:#2b0000;fill-opacity:0;stroke:#000000;stroke-width:0.24625;stroke-dasharray:none;stroke-opacity:1;paint-order:markers fill stroke"
       id="path113-64-6-73-6-8-5"
       sodipodi:type="arc"
       sodipodi:cx="137.621"
       sodipodi:cy="86.559433"
       sodipodi:rx="7"
       sodipodi:ry="7"
       sodipodi:start="5.5850536"
       sodipodi:end="0.6981317"
       sodipodi:arc-type="arc"
       d="m 142.98331,82.05992 c 2.18359,2.602295 2.18359,6.396731 0,8.999026 m 0,-8.999026 1.14907,-0.964182 m 0.48861,5.476773 1.5,0.0028 m -3.13768,4.483633 1.14907,0.964182"
       inkscape:path-effect="#path-effect1110-2-4-8"
       sodipodi:open="true" />
    <path
       style="fill:#2b0000;fill-opacity:0;stroke:#000000;stroke-width:0.24625;stroke-dasharray:none;stroke-opacity:1;paint-order:markers fill stroke"
       id="path113-64-6-73-6-8-5-3"
       sodipodi:type="arc"
       sodipodi:cx="91.436684"
       sodipodi:cy="86.559433"
       sodipodi:rx="7"
       sodipodi:ry="7"
       sodipodi:start="5.846853"
       sodipodi:end="0.43633231"
       sodipodi:arc-type="arc"
       sodipodi:open="true"
       d="m 97.780838,83.601105 c 0.874461,1.875287 0.874461,4.041369 0,5.916656 m 0,-5.916656 1.359462,-0.633927 m -1.35581,6.542739 1.360244,0.632246 m -1.363896,-0.624402 1.359462,0.633927"
       inkscape:path-effect="#path-effect1110-2-4-8-6" />
    <path
       style="fill:#2b0000;fill-opacity:0;stroke:#000000;stroke-width:0.24625;stroke-dasharray:none;stroke-opacity:1;paint-order:markers fill stroke"
       id="path113-64-6-73-6-8-5-3-9"
       sodipodi:type="arc"
       sodipodi:cx="241.4218"
       sodipodi:cy="35.008636"
       sodipodi:rx="7"
       sodipodi:ry="7"
       sodipodi:start="5.6723201"
       sodipodi:end="0.61086524"
       sodipodi:arc-type="arc"
       d="m 247.15586,30.993602 c 1.68792,2.410591 1.68792,5.619478 0,8.03007 m 0,-8.03007 1.22873,-0.860365 m -1.22873,8.890435 1.22873,0.860364"
       inkscape:path-effect="#path-effect1110-2-4-8-6-7"
       sodipodi:open="true" />
    <path
       style="fill:#2b0000;fill-opacity:0;stroke:#000000;stroke-width:0.24625;stroke-dasharray:none;stroke-opacity:1;paint-order:markers fill stroke"
       id="path113-64-6-73-6-8-5-3-9-8"
       sodipodi:type="arc"
       sodipodi:cx="241.41254"
       sodipodi:cy="79.630417"
       sodipodi:rx="7"
       sodipodi:ry="7"
       sodipodi:start="5.6723201"
       sodipodi:end="0.61086524"
       sodipodi:arc-type="arc"
       d="m 247.1466,75.615382 c 1.68792,2.410591 1.68792,5.619479 0,8.03007 m 0,-8.03007 1.22873,-0.860365 m -1.22873,8.890435 1.22873,0.860365"
       inkscape:path-effect="#path-effect1110-2-4-8-6-7-4"
       sodipodi:open="true" />
    <path
       style="fill:#2b0000;fill-opacity:0;stroke:#000000;stroke-width:0.24625;stroke-dasharray:none;stroke-opacity:1;paint-order:markers fill stroke"
       id="path113-64-6-73-4"
       sodipodi:type="arc"
       sodipodi:cx="91.435555"
       sodipodi:cy="39.766582"
       sodipodi:rx="7"
       sodipodi:ry="7"
       sodipodi:start="5.4105207"
       sodipodi:end="0.87266463"
       sodipodi:arc-type="arc"
       sodipodi:open="true"
       d="m 95.935068,34.404271 c 1.585061,1.330025 2.500487,3.293161 2.500487,5.362311 0,2.069151 -0.915426,4.032288 -2.500487,5.362312 m 0,-10.724623 0.964181,-1.149066 m 0.899627,3.594507 1.363569,-0.625044 m -0.727487,3.63326 1.499873,0.01957 m -2.214241,2.971017 1.346793,0.660415 m -3.132315,1.61996 0.964181,1.149066"
       inkscape:path-effect="#path-effect1110-0" />
    <path
       style="fill:#2b0000;fill-opacity:0;stroke:#000000;stroke-width:0.24625;stroke-dasharray:none;stroke-opacity:1;paint-order:markers fill stroke"
       id="path113-64-6-73-4-1"
       sodipodi:type="arc"
       sodipodi:cx="91.439308"
       sodipodi:cy="62.665569"
       sodipodi:rx="7"
       sodipodi:ry="7"
       sodipodi:start="5.4105207"
       sodipodi:end="0.87266463"
       sodipodi:arc-type="arc"
       sodipodi:open="true"
       d="m 95.938822,57.303258 c 1.58506,1.330024 2.500486,3.293161 2.500486,5.362311 0,2.06915 -0.915426,4.032287 -2.500487,5.362311 m 10e-7,-10.724622 0.964181,-1.149066 m 0.899627,3.594507 1.363569,-0.625044 m -0.727487,3.633259 1.499872,0.01957 m -2.214241,2.971018 1.346793,0.660415 m -3.132315,1.619959 0.964182,1.149067"
       inkscape:path-effect="#path-effect1110-0-6" />
    <circle
       style="fill:#2b0000;stroke-width:0.24625;stroke-dasharray:none;paint-order:markers fill stroke;fill-opacity:0;stroke:#000000;stroke-opacity:1"
       id="path113-64-6-3"
       cy="17.069624"
       cx="131.54079"
       r="7" />
    <rect
       style="fill:#ffffff;stroke:#000000;stroke-width:0.249389;stroke-dasharray:none;image-rendering:auto;fill-opacity:0"
       id="rect547-7-5-8-2"
       width="60.509354"
       height="21.702368"
       x="81.267464"
       y="29.074894"
       ry="2.4960618" />
    <circle
       style="fill:#2b0000;stroke-width:0.24625;stroke-dasharray:none;paint-order:markers fill stroke;fill-opacity:0;stroke:#000000;stroke-opacity:1"
       id="path113-64-6-8"
       cy="39.766582"
       cx="91.428108"
       r="7" />
    <circle
       style="fill:#2b0000;stroke-width:0.24625;stroke-dasharray:none;paint-order:markers fill stroke;fill-opacity:0;stroke:#000000;stroke-opacity:1"
       id="path113-64-6-3-0"
       cy="39.766582"
       cx="131.54079"
       r="7" />
    <rect
       style="fill:#ffffff;stroke:#000000;stroke-width:0.249452;stroke-dasharray:none;image-rendering:auto;fill-opacity:0"
       id="rect547-7-5-8-2-4"
       width="60.708023"
       height="21.701857"
       x="81.237801"
       y="51.873119"
       ry="2.4960032" />
    <circle
       style="fill:#2b0000;stroke-width:0.24625;stroke-dasharray:none;paint-order:markers fill stroke;fill-opacity:0;stroke:#000000;stroke-opacity:1"
       id="path113-64-6-8-8"
       cy="62.665569"
       cx="91.428108"
       r="7" />
    <circle
       style="fill:#2b0000;stroke-width:0.24625;stroke-dasharray:none;paint-order:markers fill stroke;fill-opacity:0;stroke:#000000;stroke-opacity:1"
       id="path113-64-6-3-0-8"
       cy="62.665569"
       cx="131.54079"
       r="7" />
    <circle
       style="fill:#2b0000;fill-opacity:0;stroke:#000000;stroke-width:0.24625;stroke-dasharray:none;stroke-opacity:1;paint-order:markers fill stroke"
       id="path113-64-6-8-4"
       cy="86.559433"
       cx="91.428108"
       r="7" />
    <circle
       style="fill:#2b0000;fill-opacity:0;stroke:#000000;stroke-width:0.24625;stroke-dasharray:none;stroke-opacity:1;paint-order:markers fill stroke"
       id="path113-64-6-8-4-5"
       cy="75.688919"
       cx="15.000387"
       r="7" />
    <rect
       style="fill:#ffffff;stroke:#000000;stroke-width:0.25;stroke-dasharray:none;image-rendering:auto;fill-opacity:0"
       id="rect547-7-5-1"
       width="44.115719"
       height="71.788261"
       x="144.55487"
       y="2.7279761"
       ry="2.1317265" />
    <rect
       style="fill:#ffffff;stroke:#000000;stroke-width:0.25;stroke-dasharray:none;image-rendering:auto;fill-opacity:0"
       id="rect547-7-5-8-8"
       width="41.771042"
       height="21.75699"
       x="145.77676"
       y="5.9009719"
       ry="2.5023441" />
    <circle
       style="fill:#2b0000;fill-opacity:0;stroke:#000000;stroke-width:0.24625;stroke-dasharray:none;stroke-opacity:1;paint-order:markers fill stroke"
       id="path113-64-6-7"
       cy="17.069624"
       cx="156.10254"
       r="7" />
    <rect
       style="fill:#ffffff;stroke:#000000;stroke-width:0.25;stroke-dasharray:none;image-rendering:auto;fill-opacity:0"
       id="rect547-7-5-8-2-46"
       width="41.433613"
       height="21.758076"
       x="146.00224"
       y="28.698402"
       ry="2.5024688" />
    <circle
       style="fill:#2b0000;fill-opacity:0;stroke:#000000;stroke-width:0.24625;stroke-dasharray:none;stroke-opacity:1;paint-order:markers fill stroke"
       id="path113-64-6-8-2"
       cy="39.766582"
       cx="156.10254"
       r="7" />
    <rect
       style="fill:#ffffff;stroke:#000000;stroke-width:0.25;stroke-dasharray:none;image-rendering:auto;fill-opacity:0"
       id="rect547-7-5-8-2-4-4"
       width="41.431553"
       height="22.094532"
       x="146.00328"
       y="51.497406"
       ry="2.5411656" />
    <circle
       style="fill:#2b0000;fill-opacity:0;stroke:#000000;stroke-width:0.24625;stroke-dasharray:none;stroke-opacity:1;paint-order:markers fill stroke"
       id="path113-64-6-8-8-0"
       cy="62.665569"
       cx="156.10254"
       r="7" />
    <rect
       style="fill:#ffffff;stroke:#000000;stroke-width:0.25;stroke-dasharray:none;image-rendering:auto;fill-opacity:0"
       id="rect547-7-5-8-8-1"
       width="63.591217"
       height="43.465988"
       x="190.20952"
       y="2.5191607"
       ry="2.755528" />
    <circle
       style="fill:#2b0000;stroke-width:0.24625;stroke-dasharray:none;paint-order:markers fill stroke;fill-opacity:0;stroke:#000000;stroke-opacity:1"
       id="path113-64-6-7-5"
       cy="14.366385"
       cx="201.7785"
       r="7" />
    <circle
       style="fill:#2b0000;stroke-width:0.24625;stroke-dasharray:none;paint-order:markers fill stroke;fill-opacity:0;stroke:#000000;stroke-opacity:1"
       id="path113-64-6-3-9-1"
       cy="14.366385"
       cx="221.59477"
       r="7" />
    <path
       style="fill:#2b0000;fill-opacity:0;stroke:#000000;stroke-width:0.24625;stroke-dasharray:none;stroke-opacity:1;paint-order:markers fill stroke"
       id="path113-64-6-3-9-1-0"
       sodipodi:type="arc"
       sodipodi:cx="241.41104"
       sodipodi:cy="14.366385"
       sodipodi:rx="7"
       sodipodi:ry="7"
       sodipodi:start="2.0071286"
       sodipodi:end="1.134464"
       sodipodi:arc-type="arc"
       d="m 238.45271,20.71054 c -2.97469,-1.387121 -4.58614,-4.654824 -3.87574,-7.859232 0.7104,-3.204407 3.55186,-5.4849225 6.83407,-5.4849225 3.28221,0 6.12367,2.2805153 6.83407,5.4849225 0.7104,3.204407 -0.90105,6.472111 -3.87574,7.859232 m -5.91666,0 -0.63392,1.359462 m -2.67065,-4.576954 -0.8947,0.446666 m 0.30905,-5.021545 -0.97837,-0.206888 m 3.3659,-3.7392722 -0.63729,-0.7706252 m 4.9615,-0.833661 -0.0195,-0.999809 m 4.40315,2.4338699 0.91002,-1.1924147 m 1.62991,5.0422502 0.96953,-0.244967 m -1.37593,4.839238 0.91147,0.411358 m -4.08778,2.932827 0.45772,0.889099"
       sodipodi:open="true"
       inkscape:path-effect="#path-effect2776" />
    <circle
       style="fill:#2b0000;stroke-width:0.24625;stroke-dasharray:none;paint-order:markers fill stroke;fill-opacity:0;stroke:#000000;stroke-opacity:1"
       id="path113-64-6-8-2-8"
       cy="35.008636"
       cx="201.7785"
       r="7" />
    <circle
       style="fill:#2b0000;stroke-width:0.24625;stroke-dasharray:none;paint-order:markers fill stroke;fill-opacity:0;stroke:#000000;stroke-opacity:1"
       id="path113-64-6-3-0-1-0"
       cy="35.008636"
       cx="241.41104"
       r="7" />
    <rect
       style="fill:#ffffff;stroke:#000000;stroke-width:0.25;stroke-dasharray:none;image-rendering:auto;fill-opacity:0"
       id="rect547-7-5-8-8-1-0"
       width="63.591797"
       height="43.29731"
       x="190.26106"
       y="47.211128"
       ry="2.7448344" />
    <circle
       style="fill:#2b0000;stroke-width:0.24625;stroke-dasharray:none;paint-order:markers fill stroke;fill-opacity:0;stroke:#000000;stroke-opacity:1"
       id="path113-64-6-7-5-5"
       cy="59.05864"
       cx="201.7785"
       r="7" />
    <path
       style="fill:#2b0000;fill-opacity:0;stroke:#000000;stroke-width:0.24625;stroke-dasharray:none;stroke-opacity:1;paint-order:markers fill stroke"
       id="path113-64-6-3-9-1-0-4"
       sodipodi:type="arc"
       sodipodi:cx="241.41104"
       sodipodi:cy="59.05864"
       sodipodi:rx="7"
       sodipodi:ry="7"
       sodipodi:start="2.0071286"
       sodipodi:end="1.134464"
       sodipodi:arc-type="arc"
       d="m 238.45271,65.402794 c -2.97469,-1.387121 -4.58614,-4.654824 -3.87574,-7.859232 0.7104,-3.204407 3.55186,-5.484922 6.83407,-5.484922 3.28221,0 6.12367,2.280515 6.83407,5.484922 0.7104,3.204407 -0.90105,6.472111 -3.87574,7.859232 m -5.91666,0 -0.63392,1.359462 m -2.67065,-4.576954 -0.8947,0.446666 m 0.30905,-5.021545 -0.97837,-0.206888 m 3.3659,-3.739272 -0.63729,-0.770625 m 4.9615,-0.833661 -0.0195,-0.999809 m 4.40315,2.43387 0.91002,-1.192415 m 1.62991,5.04225 0.96953,-0.244967 m -1.37593,4.839238 0.91147,0.411358 m -4.08778,2.932827 0.45772,0.889099"
       sodipodi:open="true"
       inkscape:path-effect="#path-effect2772" />
    <circle
       style="fill:#2b0000;stroke-width:0.24625;stroke-dasharray:none;paint-order:markers fill stroke;fill-opacity:0;stroke:#000000;stroke-opacity:1"
       id="path113-64-6-8-2-8-4"
       cy="79.771362"
       cx="201.7785"
       r="7" />
    <circle
       style="fill:#2b0000;stroke-width:0.24625;stroke-dasharray:none;paint-order:markers fill stroke;fill-opacity:0;stroke:#000000;stroke-opacity:1"
       id="path113-64-6-3-0-1-0-7"
       cy="79.630417"
       cx="241.41104"
       r="7" />
    <rect
       style="fill:#ffffff;fill-opacity:0;stroke:#000000;stroke-width:0.25;stroke-dasharray:none;image-rendering:auto"
       id="rect547-7-5-8-8-1-0-7"
       width="62.15501"
       height="22.269968"
       x="126.4512"
       y="75.590477"
       ry="1.4118056" />
    <circle
       style="fill:#2b0000;fill-opacity:0;stroke:#000000;stroke-width:0.24625;stroke-dasharray:none;stroke-opacity:1;paint-order:markers fill stroke"
       id="path113-64-6-7-5-5-4"
       cy="86.559433"
       cx="137.60675"
       r="7" />
    <circle
       style="fill:#2b0000;fill-opacity:0;stroke:#000000;stroke-width:0.24625;stroke-dasharray:none;stroke-opacity:1;paint-order:markers fill stroke"
       id="path113-64-6-3-9-1-0-4-2"
       cy="86.559433"
       cx="176.97763"
       r="7" />
    <path
       style="fill:#2b0000;fill-opacity:0;stroke:#000000;stroke-width:0.24625;stroke-dasharray:none;stroke-opacity:1;paint-order:markers fill stroke"
       id="path113-6-4-6"
       sodipodi:type="arc"
       sodipodi:cx="66.113518"
       sodipodi:cy="55.80164"
       sodipodi:rx="7"
       sodipodi:ry="7"
       sodipodi:start="2.0071286"
       sodipodi:end="1.134464"
       sodipodi:arc-type="arc"
       d="m 63.15519,62.145794 c -2.974691,-1.387121 -4.586144,-4.654824 -3.875744,-7.859232 0.7104,-3.204407 3.551863,-5.484922 6.834072,-5.484922 3.282208,0 6.123672,2.280515 6.834072,5.484922 0.7104,3.204407 -0.901053,6.472111 -3.875744,7.859232 m -5.916656,0 -0.633927,1.359462 m -2.218064,-3.799748 -0.830046,0.557696 m -0.351319,-4.120451 -0.998812,0.04873 m 1.827749,-3.709565 -0.880392,-0.474246 m 3.481289,-2.232078 -0.508836,-0.860864 m 4.133862,-0.112805 0.01354,-1.499939 m 3.593324,2.53888 0.524291,-0.851539 m 2.027333,3.604367 0.888809,-0.458278 m -0.126083,4.133479 0.997769,0.06675 m -2.243248,3.474101 0.819844,0.572587 m -3.600425,1.76346 0.633927,1.359462"
       sodipodi:open="true"
       inkscape:path-effect="#path-effect1082" />
    <path
       style="fill:#2b0000;fill-opacity:0;stroke:#000000;stroke-width:0.24625;stroke-dasharray:none;stroke-opacity:1;paint-order:markers fill stroke"
       id="path113-6-4-3-7"
       sodipodi:type="arc"
       sodipodi:cx="66.113518"
       sodipodi:cy="75.799751"
       sodipodi:rx="7"
       sodipodi:ry="7"
       sodipodi:start="2.0071286"
       sodipodi:end="1.134464"
       sodipodi:arc-type="arc"
       d="m 63.15519,82.143906 c -2.974691,-1.387121 -4.586144,-4.654824 -3.875744,-7.859232 0.7104,-3.204407 3.551863,-5.484923 6.834072,-5.484923 3.282208,0 6.123672,2.280516 6.834072,5.484923 0.7104,3.204407 -0.901053,6.47211 -3.875744,7.859232 m -5.916656,0 -0.633927,1.359462 m -2.218064,-3.799748 -0.830046,0.557696 m -0.351319,-4.120451 -0.998812,0.04873 m 1.827749,-3.709566 -0.880392,-0.474246 m 3.481289,-2.232077 -0.508836,-0.860864 m 4.133862,-0.112806 0.01354,-1.499939 m 3.593324,2.538881 0.524291,-0.851539 m 2.027333,3.604367 0.888809,-0.458278 m -0.126083,4.133479 0.997769,0.06675 m -2.243248,3.474102 0.819844,0.572586 m -3.600425,1.763461 0.633927,1.359461"
       sodipodi:open="true"
       inkscape:path-effect="#path-effect1084" />
    <path
       style="fill:#2b0000;fill-opacity:0;stroke:#000000;stroke-width:0.24625;stroke-dasharray:none;stroke-opacity:1;paint-order:markers fill stroke"
       id="path113-64-69"
       sodipodi:type="arc"
       sodipodi:cx="176.9731"
       sodipodi:cy="17.073015"
       sodipodi:rx="7"
       sodipodi:ry="7"
       sodipodi:start="2.0071286"
       sodipodi:end="1.134464"
       sodipodi:arc-type="arc"
       d="m 174.01477,23.41717 c -2.97469,-1.387121 -4.58614,-4.654825 -3.87574,-7.859232 0.7104,-3.204407 3.55186,-5.484923 6.83407,-5.484923 3.28221,0 6.12367,2.280516 6.83407,5.484923 0.7104,3.204407 -0.90105,6.47211 -3.87574,7.859232 m -5.91666,0 -0.63393,1.359462 m -2.21806,-3.799748 -0.83005,0.557696 m -0.35132,-4.120452 -0.99881,0.04873 m 1.82775,-3.709566 -0.88039,-0.474246 m 3.48129,-2.232077 -0.50884,-0.860864 m 4.13387,-0.112806 0.0135,-1.4999386 m 3.59333,2.5388806 0.52429,-0.851539 m 2.02733,3.604367 0.88881,-0.458278 m -0.12608,4.133479 0.99777,0.06675 m -2.24325,3.474102 0.81984,0.572586 m -3.60042,1.763461 0.63392,1.359461"
       sodipodi:open="true"
       inkscape:path-effect="#path-effect1078-2" />
    <path
       style="fill:#2b0000;fill-opacity:0;stroke:#000000;stroke-width:0.24625;stroke-dasharray:none;stroke-opacity:1;paint-order:markers fill stroke"
       id="path113-64-6-73-6-8-5-3-2"
       sodipodi:type="arc"
       sodipodi:cx="14.988685"
       sodipodi:cy="75.688919"
       sodipodi:rx="7"
       sodipodi:ry="7"
       sodipodi:start="5.846853"
       sodipodi:end="0.43633231"
       sodipodi:arc-type="arc"
       d="m 21.332839,72.730591 c 0.874461,1.875287 0.874461,4.041369 0,5.916656 m 0,-5.916656 1.359462,-0.633927 m -1.35581,6.542739 1.360244,0.632247 m -1.363896,-0.624403 1.359462,0.633927"
       inkscape:path-effect="#path-effect1110-2-4-8-6-1"
       sodipodi:open="true" />
    <path
       style="fill:#2b0000;fill-opacity:0;stroke:#000000;stroke-width:0.24625;stroke-dasharray:none;stroke-opacity:1;paint-order:markers fill stroke"
       id="path113-64-69-3"
       sodipodi:type="arc"
       sodipodi:cx="176.96484"
       sodipodi:cy="62.668766"
       sodipodi:rx="7"
       sodipodi:ry="7"
       sodipodi:start="2.0071286"
       sodipodi:end="1.134464"
       sodipodi:arc-type="arc"
       d="m 174.00652,69.012921 c -2.9747,-1.387122 -4.58615,-4.654825 -3.87575,-7.859232 0.7104,-3.204407 3.55186,-5.484923 6.83407,-5.484923 3.28221,0 6.12368,2.280515 6.83408,5.484923 0.7104,3.204407 -0.90106,6.47211 -3.87575,7.859231 m -5.91665,1e-6 -0.63393,1.359461 m -2.21807,-3.799747 -0.83004,0.557695 m -0.35132,-4.120451 -0.99881,0.04873 m 1.82775,-3.709566 -0.8804,-0.474246 m 3.48129,-2.232077 -0.50883,-0.860864 m 4.13386,-0.112806 0.0135,-1.499939 m 3.59332,2.538881 0.52429,-0.85154 m 2.02734,3.604368 0.88881,-0.458278 m -0.12609,4.133478 0.99777,0.06675 m -2.24325,3.474101 0.81985,0.572587 m -3.60043,1.76346 0.63393,1.359462"
       sodipodi:open="true"
       inkscape:path-effect="#path-effect1078-2-7" />
    <path
       style="fill:#2b0000;fill-opacity:0;stroke:#000000;stroke-width:0.24625;stroke-dasharray:none;stroke-opacity:1;paint-order:markers fill stroke"
       id="path113-64-69-1"
       sodipodi:type="arc"
       sodipodi:cx="176.96959"
       sodipodi:cy="39.766514"
       sodipodi:rx="7"
       sodipodi:ry="7"
       sodipodi:start="2.0071286"
       sodipodi:end="1.134464"
       sodipodi:arc-type="arc"
       d="m 174.01126,46.110668 c -2.97469,-1.387121 -4.58614,-4.654824 -3.87574,-7.859231 0.7104,-3.204408 3.55186,-5.484923 6.83407,-5.484923 3.28221,0 6.12367,2.280515 6.83407,5.484922 0.7104,3.204408 -0.90105,6.472111 -3.87574,7.859232 m -5.91666,0 -0.63393,1.359462 m -2.21806,-3.799747 -0.83005,0.557695 m -0.35131,-4.120451 -0.99882,0.04873 m 1.82775,-3.709566 -0.88039,-0.474246 m 3.48129,-2.232078 -0.50884,-0.860863 m 4.13387,-0.112806 0.0135,-1.499939 m 3.59333,2.53888 0.52429,-0.851539 m 2.02733,3.604367 0.88881,-0.458277 m -0.12608,4.133478 0.99777,0.06675 m -2.24325,3.474101 0.81984,0.572587 m -3.60042,1.76346 0.63392,1.359462"
       sodipodi:open="true"
       inkscape:path-effect="#path-effect1078-2-1" />
    <text
       xml:space="preserve"
       transform="scale(0.25)"
       id="text1367"
       style="font-size:8px;line-height:1.25;font-family:sans-serif;white-space:pre;shape-inside:url(#rect1369);display:inline" />
  </g>
</svg>
